#N canvas 348 84 927 731 12;
#X obj 400 420 output~;
#X msg 490 514 stop;
#X obj 400 510 writesf~;
#X obj 200 190 +;
#X obj 200 130 unpack f f;
#X obj 200 160 * 255;
#X obj 470 130 metro 100;
#X obj 400 320 *;
#X msg 470 100 1;
#X msg 510 100 0;
#X obj 200 100 netreceive -u -b 5505;
#X floatatom 200 220 5 0 0 0 - - -, f 5;
#X floatatom 470 220 0 0 0 0 - - -;
#X obj 470 190 expr 2 * $f1;
#X obj 470 160 random 25;
#X obj 580 129 metro 100;
#X msg 580 100 1;
#X msg 620 100 0;
#X obj 580 190 expr 2 * $f1;
#X obj 580 160 random 25;
#X floatatom 580 220 0 0 0 0 - - -;
#X obj 500 320 *;
#X msg 490 484 open demo.wav \, start;
#X obj 390 380 phasor~;
#N canvas 0 37 1470 809 Percussion 0;
#X obj 20 20 inlet;
#X obj 20 540 outlet;
#X text 80 20 Kick;
#X obj 230 140 vline~;
#X obj 230 320 *~;
#X obj 230 370 dac~;
#X msg 230 100 0 \, 1 10 0 \, 0 \, 0.6 10 10 \, 0.6 100 20 \, 0 70
120;
#X obj 30 170 noise~;
#X floatatom 130 140 5 0 0 0 - - -, f 5;
#X obj 40 200 lop~;
#X connect 3 0 4 1;
#X connect 4 0 5 0;
#X connect 4 0 5 1;
#X connect 6 0 3 0;
#X connect 7 0 9 0;
#X connect 8 0 9 1;
#X connect 9 0 4 0;
#X restore 20 100 pd Percussion;
#X obj 450 380 phasor~;
#X connect 0 0 2 0;
#X connect 1 0 2 0;
#X connect 3 0 11 0;
#X connect 4 0 5 0;
#X connect 4 1 3 1;
#X connect 5 0 3 0;
#X connect 6 0 14 0;
#X connect 7 0 23 0;
#X connect 8 0 6 0;
#X connect 9 0 6 0;
#X connect 10 0 4 0;
#X connect 11 0 7 0;
#X connect 11 0 21 0;
#X connect 12 0 7 1;
#X connect 13 0 12 0;
#X connect 14 0 13 0;
#X connect 15 0 19 0;
#X connect 16 0 15 0;
#X connect 17 0 15 0;
#X connect 18 0 20 0;
#X connect 19 0 18 0;
#X connect 20 0 21 1;
#X connect 21 0 25 0;
#X connect 22 0 2 0;
#X connect 23 0 0 0;
#X connect 25 0 0 1;
